<mxfile host="app.diagrams.net" agent="Mozilla/5.0 (Windows NT 10.0; Win64; x64) AppleWebKit/537.36 (KHTML, like Gecko) Chrome/126.0.0.0 Safari/537.36" version="24.7.4">
  <diagram name="Page-1" id="wWar5-rYaqnveBViThUz">
    <mxGraphModel dx="934" dy="540" grid="1" gridSize="10" guides="1" tooltips="1" connect="1" arrows="1" fold="1" page="1" pageScale="1" pageWidth="850" pageHeight="1100" math="0" shadow="0">
      <root>
        <mxCell id="0" />
        <mxCell id="1" parent="0" />
        <mxCell id="P7Sbou9Ln9NCmPDyanNV-1" value="" style="rounded=0;whiteSpace=wrap;html=1;" parent="1" vertex="1">
          <mxGeometry x="150" width="520" height="1310" as="geometry" />
        </mxCell>
        <mxCell id="P7Sbou9Ln9NCmPDyanNV-2" value="Login" style="ellipse;whiteSpace=wrap;html=1;movable=1;resizable=1;rotatable=1;deletable=1;editable=1;locked=0;connectable=1;fontFamily=Helvetica;" parent="1" vertex="1">
          <mxGeometry x="350" y="100" width="120" height="40" as="geometry" />
        </mxCell>
        <mxCell id="P7Sbou9Ln9NCmPDyanNV-3" value="Manage User" style="ellipse;whiteSpace=wrap;html=1;" parent="1" vertex="1">
          <mxGeometry x="350" y="230" width="120" height="40" as="geometry" />
        </mxCell>
        <mxCell id="P7Sbou9Ln9NCmPDyanNV-5" value="Manage Feedback" style="ellipse;whiteSpace=wrap;html=1;" parent="1" vertex="1">
          <mxGeometry x="350" y="980" width="120" height="40" as="geometry" />
        </mxCell>
        <mxCell id="P7Sbou9Ln9NCmPDyanNV-7" value="Manage Booking" style="ellipse;whiteSpace=wrap;html=1;" parent="1" vertex="1">
          <mxGeometry x="350" y="410" width="120" height="40" as="geometry" />
        </mxCell>
        <mxCell id="P7Sbou9Ln9NCmPDyanNV-10" value="Forget Password" style="ellipse;whiteSpace=wrap;html=1;" parent="1" vertex="1">
          <mxGeometry x="490" y="170" width="120" height="40" as="geometry" />
        </mxCell>
        <mxCell id="P7Sbou9Ln9NCmPDyanNV-11" value="View User" style="ellipse;whiteSpace=wrap;html=1;" parent="1" vertex="1">
          <mxGeometry x="280" y="340" width="120" height="30" as="geometry" />
        </mxCell>
        <mxCell id="P7Sbou9Ln9NCmPDyanNV-12" value="Update User" style="ellipse;whiteSpace=wrap;html=1;" parent="1" vertex="1">
          <mxGeometry x="425" y="340" width="120" height="30" as="geometry" />
        </mxCell>
        <mxCell id="P7Sbou9Ln9NCmPDyanNV-13" value="Add User" style="ellipse;whiteSpace=wrap;html=1;" parent="1" vertex="1">
          <mxGeometry x="200" y="290" width="120" height="30" as="geometry" />
        </mxCell>
        <mxCell id="P7Sbou9Ln9NCmPDyanNV-14" value="Delete User" style="ellipse;whiteSpace=wrap;html=1;" parent="1" vertex="1">
          <mxGeometry x="520" y="290" width="120" height="30" as="geometry" />
        </mxCell>
        <mxCell id="P7Sbou9Ln9NCmPDyanNV-16" value="View Booking" style="ellipse;whiteSpace=wrap;html=1;" parent="1" vertex="1">
          <mxGeometry x="200" y="480" width="120" height="30" as="geometry" />
        </mxCell>
        <mxCell id="P7Sbou9Ln9NCmPDyanNV-17" value="Add Booking" style="ellipse;whiteSpace=wrap;html=1;" parent="1" vertex="1">
          <mxGeometry x="350" y="535" width="120" height="30" as="geometry" />
        </mxCell>
        <mxCell id="P7Sbou9Ln9NCmPDyanNV-18" value="Delete Booking" style="ellipse;whiteSpace=wrap;html=1;" parent="1" vertex="1">
          <mxGeometry x="500" y="480" width="120" height="30" as="geometry" />
        </mxCell>
        <mxCell id="P7Sbou9Ln9NCmPDyanNV-19" value="Manage Packages" style="ellipse;whiteSpace=wrap;html=1;" parent="1" vertex="1">
          <mxGeometry x="350" y="600" width="120" height="40" as="geometry" />
        </mxCell>
        <mxCell id="P7Sbou9Ln9NCmPDyanNV-20" value="Add Packages" style="ellipse;whiteSpace=wrap;html=1;" parent="1" vertex="1">
          <mxGeometry x="200" y="690" width="120" height="30" as="geometry" />
        </mxCell>
        <mxCell id="P7Sbou9Ln9NCmPDyanNV-21" value="View Packages" style="ellipse;whiteSpace=wrap;html=1;" parent="1" vertex="1">
          <mxGeometry x="280" y="740" width="120" height="30" as="geometry" />
        </mxCell>
        <mxCell id="P7Sbou9Ln9NCmPDyanNV-22" value="Update Packages" style="ellipse;whiteSpace=wrap;html=1;" parent="1" vertex="1">
          <mxGeometry x="425" y="740" width="120" height="30" as="geometry" />
        </mxCell>
        <mxCell id="P7Sbou9Ln9NCmPDyanNV-23" value="Delete Packages" style="ellipse;whiteSpace=wrap;html=1;" parent="1" vertex="1">
          <mxGeometry x="500" y="690" width="120" height="30" as="geometry" />
        </mxCell>
        <mxCell id="P7Sbou9Ln9NCmPDyanNV-24" value="Do Payment" style="ellipse;whiteSpace=wrap;html=1;" parent="1" vertex="1">
          <mxGeometry x="500" y="910" width="120" height="30" as="geometry" />
        </mxCell>
        <mxCell id="P7Sbou9Ln9NCmPDyanNV-26" value="Manage Payment" style="ellipse;whiteSpace=wrap;html=1;" parent="1" vertex="1">
          <mxGeometry x="350" y="830" width="120" height="40" as="geometry" />
        </mxCell>
        <mxCell id="P7Sbou9Ln9NCmPDyanNV-28" value="Delete Feedback" style="ellipse;whiteSpace=wrap;html=1;" parent="1" vertex="1">
          <mxGeometry x="500" y="1060" width="120" height="30" as="geometry" />
        </mxCell>
        <mxCell id="P7Sbou9Ln9NCmPDyanNV-29" value="View Feedback" style="ellipse;whiteSpace=wrap;html=1;" parent="1" vertex="1">
          <mxGeometry x="200" y="1060" width="120" height="30" as="geometry" />
        </mxCell>
        <mxCell id="P7Sbou9Ln9NCmPDyanNV-30" style="edgeStyle=orthogonalEdgeStyle;rounded=0;orthogonalLoop=1;jettySize=auto;html=1;exitX=0.5;exitY=1;exitDx=0;exitDy=0;" parent="1" source="P7Sbou9Ln9NCmPDyanNV-29" target="P7Sbou9Ln9NCmPDyanNV-29" edge="1">
          <mxGeometry relative="1" as="geometry" />
        </mxCell>
        <mxCell id="P7Sbou9Ln9NCmPDyanNV-31" value="View Invoice" style="ellipse;whiteSpace=wrap;html=1;" parent="1" vertex="1">
          <mxGeometry x="200" y="1240" width="120" height="30" as="geometry" />
        </mxCell>
        <mxCell id="P7Sbou9Ln9NCmPDyanNV-32" value="Generate Invoice" style="ellipse;whiteSpace=wrap;html=1;" parent="1" vertex="1">
          <mxGeometry x="350" y="1140" width="120" height="40" as="geometry" />
        </mxCell>
        <mxCell id="P7Sbou9Ln9NCmPDyanNV-34" value="Download Invoice" style="ellipse;whiteSpace=wrap;html=1;" parent="1" vertex="1">
          <mxGeometry x="470" y="1240" width="120" height="30" as="geometry" />
        </mxCell>
        <mxCell id="P7Sbou9Ln9NCmPDyanNV-56" value="Admin" style="shape=umlActor;verticalLabelPosition=bottom;verticalAlign=top;html=1;outlineConnect=0;" parent="1" vertex="1">
          <mxGeometry x="20" y="675" width="30" height="60" as="geometry" />
        </mxCell>
        <mxCell id="P7Sbou9Ln9NCmPDyanNV-57" value="Customer" style="shape=umlActor;verticalLabelPosition=bottom;verticalAlign=top;html=1;outlineConnect=0;" parent="1" vertex="1">
          <mxGeometry x="790" y="675" width="30" height="60" as="geometry" />
        </mxCell>
        <mxCell id="P7Sbou9Ln9NCmPDyanNV-59" value="" style="endArrow=none;html=1;rounded=0;exitX=1;exitY=0.3333333333333333;exitDx=0;exitDy=0;exitPerimeter=0;" parent="1" source="P7Sbou9Ln9NCmPDyanNV-56" edge="1">
          <mxGeometry width="50" height="50" relative="1" as="geometry">
            <mxPoint x="300" y="440" as="sourcePoint" />
            <mxPoint x="150" y="130" as="targetPoint" />
          </mxGeometry>
        </mxCell>
        <mxCell id="P7Sbou9Ln9NCmPDyanNV-60" value="" style="endArrow=none;html=1;rounded=0;entryX=0;entryY=0.5;entryDx=0;entryDy=0;" parent="1" target="P7Sbou9Ln9NCmPDyanNV-2" edge="1">
          <mxGeometry width="50" height="50" relative="1" as="geometry">
            <mxPoint x="150" y="130" as="sourcePoint" />
            <mxPoint x="350" y="390" as="targetPoint" />
          </mxGeometry>
        </mxCell>
        <mxCell id="P7Sbou9Ln9NCmPDyanNV-61" value="" style="endArrow=none;html=1;rounded=0;exitX=1;exitY=0.3333333333333333;exitDx=0;exitDy=0;exitPerimeter=0;entryX=0.001;entryY=0.145;entryDx=0;entryDy=0;entryPerimeter=0;" parent="1" source="P7Sbou9Ln9NCmPDyanNV-56" target="P7Sbou9Ln9NCmPDyanNV-1" edge="1">
          <mxGeometry width="50" height="50" relative="1" as="geometry">
            <mxPoint x="300" y="440" as="sourcePoint" />
            <mxPoint x="350" y="390" as="targetPoint" />
          </mxGeometry>
        </mxCell>
        <mxCell id="P7Sbou9Ln9NCmPDyanNV-62" value="" style="endArrow=none;html=1;rounded=0;entryX=0;entryY=0.5;entryDx=0;entryDy=0;" parent="1" target="P7Sbou9Ln9NCmPDyanNV-3" edge="1">
          <mxGeometry width="50" height="50" relative="1" as="geometry">
            <mxPoint x="150" y="257" as="sourcePoint" />
            <mxPoint x="310" y="420" as="targetPoint" />
          </mxGeometry>
        </mxCell>
        <mxCell id="P7Sbou9Ln9NCmPDyanNV-63" value="" style="endArrow=none;html=1;rounded=0;exitX=1;exitY=0.3333333333333333;exitDx=0;exitDy=0;exitPerimeter=0;entryX=0;entryY=0.294;entryDx=0;entryDy=0;entryPerimeter=0;" parent="1" source="P7Sbou9Ln9NCmPDyanNV-56" target="P7Sbou9Ln9NCmPDyanNV-1" edge="1">
          <mxGeometry width="50" height="50" relative="1" as="geometry">
            <mxPoint x="200" y="520" as="sourcePoint" />
            <mxPoint x="250" y="470" as="targetPoint" />
          </mxGeometry>
        </mxCell>
        <mxCell id="P7Sbou9Ln9NCmPDyanNV-64" value="" style="endArrow=none;html=1;rounded=0;entryX=0;entryY=0.5;entryDx=0;entryDy=0;exitX=0;exitY=0.294;exitDx=0;exitDy=0;exitPerimeter=0;" parent="1" source="P7Sbou9Ln9NCmPDyanNV-1" target="P7Sbou9Ln9NCmPDyanNV-7" edge="1">
          <mxGeometry width="50" height="50" relative="1" as="geometry">
            <mxPoint x="200" y="520" as="sourcePoint" />
            <mxPoint x="250" y="470" as="targetPoint" />
          </mxGeometry>
        </mxCell>
        <mxCell id="P7Sbou9Ln9NCmPDyanNV-65" value="" style="endArrow=none;html=1;rounded=0;entryX=0;entryY=0.5;entryDx=0;entryDy=0;exitX=0.001;exitY=0.443;exitDx=0;exitDy=0;exitPerimeter=0;" parent="1" source="P7Sbou9Ln9NCmPDyanNV-1" target="P7Sbou9Ln9NCmPDyanNV-19" edge="1">
          <mxGeometry width="50" height="50" relative="1" as="geometry">
            <mxPoint x="250" y="870" as="sourcePoint" />
            <mxPoint x="300" y="820" as="targetPoint" />
          </mxGeometry>
        </mxCell>
        <mxCell id="P7Sbou9Ln9NCmPDyanNV-66" value="" style="endArrow=none;html=1;rounded=0;exitX=1;exitY=0.3333333333333333;exitDx=0;exitDy=0;exitPerimeter=0;entryX=0;entryY=0.443;entryDx=0;entryDy=0;entryPerimeter=0;" parent="1" source="P7Sbou9Ln9NCmPDyanNV-56" target="P7Sbou9Ln9NCmPDyanNV-1" edge="1">
          <mxGeometry width="50" height="50" relative="1" as="geometry">
            <mxPoint x="160" y="660" as="sourcePoint" />
            <mxPoint x="210" y="610" as="targetPoint" />
          </mxGeometry>
        </mxCell>
        <mxCell id="P7Sbou9Ln9NCmPDyanNV-67" value="" style="endArrow=none;html=1;rounded=0;exitX=1;exitY=0.3333333333333333;exitDx=0;exitDy=0;exitPerimeter=0;entryX=0.001;entryY=0.649;entryDx=0;entryDy=0;entryPerimeter=0;" parent="1" source="P7Sbou9Ln9NCmPDyanNV-56" target="P7Sbou9Ln9NCmPDyanNV-1" edge="1">
          <mxGeometry width="50" height="50" relative="1" as="geometry">
            <mxPoint x="240" y="870" as="sourcePoint" />
            <mxPoint x="290" y="820" as="targetPoint" />
          </mxGeometry>
        </mxCell>
        <mxCell id="P7Sbou9Ln9NCmPDyanNV-68" value="" style="endArrow=none;html=1;rounded=0;exitX=1;exitY=0.3333333333333333;exitDx=0;exitDy=0;exitPerimeter=0;entryX=0.004;entryY=0.766;entryDx=0;entryDy=0;entryPerimeter=0;" parent="1" source="P7Sbou9Ln9NCmPDyanNV-56" target="P7Sbou9Ln9NCmPDyanNV-1" edge="1">
          <mxGeometry width="50" height="50" relative="1" as="geometry">
            <mxPoint x="220" y="960" as="sourcePoint" />
            <mxPoint x="270" y="910" as="targetPoint" />
          </mxGeometry>
        </mxCell>
        <mxCell id="P7Sbou9Ln9NCmPDyanNV-69" value="" style="endArrow=none;html=1;rounded=0;exitX=-0.003;exitY=0.648;exitDx=0;exitDy=0;exitPerimeter=0;entryX=0;entryY=0.5;entryDx=0;entryDy=0;" parent="1" source="P7Sbou9Ln9NCmPDyanNV-1" target="P7Sbou9Ln9NCmPDyanNV-26" edge="1">
          <mxGeometry width="50" height="50" relative="1" as="geometry">
            <mxPoint x="220" y="960" as="sourcePoint" />
            <mxPoint x="270" y="910" as="targetPoint" />
          </mxGeometry>
        </mxCell>
        <mxCell id="P7Sbou9Ln9NCmPDyanNV-70" value="" style="endArrow=none;html=1;rounded=0;entryX=0;entryY=0.5;entryDx=0;entryDy=0;exitX=0.001;exitY=0.764;exitDx=0;exitDy=0;exitPerimeter=0;" parent="1" source="P7Sbou9Ln9NCmPDyanNV-1" target="P7Sbou9Ln9NCmPDyanNV-5" edge="1">
          <mxGeometry width="50" height="50" relative="1" as="geometry">
            <mxPoint x="220" y="960" as="sourcePoint" />
            <mxPoint x="270" y="910" as="targetPoint" />
          </mxGeometry>
        </mxCell>
        <mxCell id="P7Sbou9Ln9NCmPDyanNV-71" value="Register" style="ellipse;whiteSpace=wrap;html=1;" parent="1" vertex="1">
          <mxGeometry x="350" y="30" width="120" height="40" as="geometry" />
        </mxCell>
        <mxCell id="P7Sbou9Ln9NCmPDyanNV-72" value="" style="endArrow=none;html=1;rounded=0;exitX=1;exitY=0.5;exitDx=0;exitDy=0;entryX=1.001;entryY=0.041;entryDx=0;entryDy=0;entryPerimeter=0;" parent="1" source="P7Sbou9Ln9NCmPDyanNV-71" target="P7Sbou9Ln9NCmPDyanNV-1" edge="1">
          <mxGeometry width="50" height="50" relative="1" as="geometry">
            <mxPoint x="690" y="300" as="sourcePoint" />
            <mxPoint x="740" y="250" as="targetPoint" />
          </mxGeometry>
        </mxCell>
        <mxCell id="P7Sbou9Ln9NCmPDyanNV-73" value="" style="endArrow=none;html=1;rounded=0;exitX=0;exitY=0.3333333333333333;exitDx=0;exitDy=0;exitPerimeter=0;entryX=1;entryY=0.041;entryDx=0;entryDy=0;entryPerimeter=0;" parent="1" source="P7Sbou9Ln9NCmPDyanNV-57" target="P7Sbou9Ln9NCmPDyanNV-1" edge="1">
          <mxGeometry width="50" height="50" relative="1" as="geometry">
            <mxPoint x="690" y="680" as="sourcePoint" />
            <mxPoint x="700" y="40" as="targetPoint" />
          </mxGeometry>
        </mxCell>
        <mxCell id="P7Sbou9Ln9NCmPDyanNV-74" value="" style="endArrow=none;html=1;rounded=0;exitX=1;exitY=0.5;exitDx=0;exitDy=0;entryX=1;entryY=0.094;entryDx=0;entryDy=0;entryPerimeter=0;" parent="1" source="P7Sbou9Ln9NCmPDyanNV-2" target="P7Sbou9Ln9NCmPDyanNV-1" edge="1">
          <mxGeometry width="50" height="50" relative="1" as="geometry">
            <mxPoint x="690" y="460" as="sourcePoint" />
            <mxPoint x="740" y="410" as="targetPoint" />
          </mxGeometry>
        </mxCell>
        <mxCell id="P7Sbou9Ln9NCmPDyanNV-75" value="" style="endArrow=none;html=1;rounded=0;exitX=0;exitY=0.3333333333333333;exitDx=0;exitDy=0;exitPerimeter=0;entryX=1;entryY=0.094;entryDx=0;entryDy=0;entryPerimeter=0;" parent="1" source="P7Sbou9Ln9NCmPDyanNV-57" target="P7Sbou9Ln9NCmPDyanNV-1" edge="1">
          <mxGeometry width="50" height="50" relative="1" as="geometry">
            <mxPoint x="690" y="460" as="sourcePoint" />
            <mxPoint x="740" y="410" as="targetPoint" />
          </mxGeometry>
        </mxCell>
        <mxCell id="P7Sbou9Ln9NCmPDyanNV-76" value="" style="endArrow=none;html=1;rounded=0;exitX=0;exitY=0.3333333333333333;exitDx=0;exitDy=0;exitPerimeter=0;" parent="1" source="P7Sbou9Ln9NCmPDyanNV-57" edge="1">
          <mxGeometry width="50" height="50" relative="1" as="geometry">
            <mxPoint x="620" y="540" as="sourcePoint" />
            <mxPoint x="670" y="410" as="targetPoint" />
          </mxGeometry>
        </mxCell>
        <mxCell id="P7Sbou9Ln9NCmPDyanNV-77" value="" style="endArrow=none;html=1;rounded=0;entryX=0.5;entryY=1;entryDx=0;entryDy=0;exitX=0.999;exitY=0.313;exitDx=0;exitDy=0;exitPerimeter=0;" parent="1" source="P7Sbou9Ln9NCmPDyanNV-1" target="P7Sbou9Ln9NCmPDyanNV-14" edge="1">
          <mxGeometry width="50" height="50" relative="1" as="geometry">
            <mxPoint x="470" y="500" as="sourcePoint" />
            <mxPoint x="520" y="450" as="targetPoint" />
          </mxGeometry>
        </mxCell>
        <mxCell id="P7Sbou9Ln9NCmPDyanNV-78" value="" style="endArrow=none;html=1;rounded=0;entryX=0.5;entryY=1;entryDx=0;entryDy=0;exitX=0.999;exitY=0.313;exitDx=0;exitDy=0;exitPerimeter=0;" parent="1" source="P7Sbou9Ln9NCmPDyanNV-1" target="P7Sbou9Ln9NCmPDyanNV-12" edge="1">
          <mxGeometry width="50" height="50" relative="1" as="geometry">
            <mxPoint x="470" y="500" as="sourcePoint" />
            <mxPoint x="520" y="450" as="targetPoint" />
          </mxGeometry>
        </mxCell>
        <mxCell id="P7Sbou9Ln9NCmPDyanNV-79" value="" style="endArrow=none;html=1;rounded=0;entryX=0.5;entryY=1;entryDx=0;entryDy=0;" parent="1" target="P7Sbou9Ln9NCmPDyanNV-11" edge="1">
          <mxGeometry width="50" height="50" relative="1" as="geometry">
            <mxPoint x="670" y="410" as="sourcePoint" />
            <mxPoint x="520" y="450" as="targetPoint" />
          </mxGeometry>
        </mxCell>
        <mxCell id="P7Sbou9Ln9NCmPDyanNV-80" value="" style="endArrow=none;html=1;rounded=0;exitX=0.5;exitY=1;exitDx=0;exitDy=0;entryX=1;entryY=0.472;entryDx=0;entryDy=0;entryPerimeter=0;" parent="1" source="P7Sbou9Ln9NCmPDyanNV-18" target="P7Sbou9Ln9NCmPDyanNV-1" edge="1">
          <mxGeometry width="50" height="50" relative="1" as="geometry">
            <mxPoint x="570" y="580" as="sourcePoint" />
            <mxPoint x="670" y="620" as="targetPoint" />
          </mxGeometry>
        </mxCell>
        <mxCell id="P7Sbou9Ln9NCmPDyanNV-81" value="" style="endArrow=none;html=1;rounded=0;entryX=0.5;entryY=1;entryDx=0;entryDy=0;" parent="1" target="P7Sbou9Ln9NCmPDyanNV-16" edge="1">
          <mxGeometry width="50" height="50" relative="1" as="geometry">
            <mxPoint x="260" y="570" as="sourcePoint" />
            <mxPoint x="450" y="580" as="targetPoint" />
          </mxGeometry>
        </mxCell>
        <mxCell id="P7Sbou9Ln9NCmPDyanNV-82" value="" style="endArrow=none;html=1;rounded=0;entryX=1.001;entryY=0.472;entryDx=0;entryDy=0;entryPerimeter=0;" parent="1" target="P7Sbou9Ln9NCmPDyanNV-1" edge="1">
          <mxGeometry width="50" height="50" relative="1" as="geometry">
            <mxPoint x="260" y="570" as="sourcePoint" />
            <mxPoint x="450" y="580" as="targetPoint" />
          </mxGeometry>
        </mxCell>
        <mxCell id="P7Sbou9Ln9NCmPDyanNV-83" value="" style="endArrow=none;html=1;rounded=0;entryX=1;entryY=0.472;entryDx=0;entryDy=0;entryPerimeter=0;" parent="1" target="P7Sbou9Ln9NCmPDyanNV-1" edge="1">
          <mxGeometry width="50" height="50" relative="1" as="geometry">
            <mxPoint x="790" y="690" as="sourcePoint" />
            <mxPoint x="670" y="620" as="targetPoint" />
          </mxGeometry>
        </mxCell>
        <mxCell id="P7Sbou9Ln9NCmPDyanNV-84" value="" style="endArrow=none;html=1;rounded=0;exitX=0.5;exitY=1;exitDx=0;exitDy=0;entryX=1.003;entryY=0.634;entryDx=0;entryDy=0;entryPerimeter=0;" parent="1" source="P7Sbou9Ln9NCmPDyanNV-21" target="P7Sbou9Ln9NCmPDyanNV-1" edge="1">
          <mxGeometry width="50" height="50" relative="1" as="geometry">
            <mxPoint x="440" y="820" as="sourcePoint" />
            <mxPoint x="490" y="770" as="targetPoint" />
          </mxGeometry>
        </mxCell>
        <mxCell id="P7Sbou9Ln9NCmPDyanNV-85" value="" style="endArrow=none;html=1;rounded=0;entryX=0;entryY=0.3333333333333333;entryDx=0;entryDy=0;entryPerimeter=0;exitX=1.003;exitY=0.634;exitDx=0;exitDy=0;exitPerimeter=0;" parent="1" source="P7Sbou9Ln9NCmPDyanNV-1" target="P7Sbou9Ln9NCmPDyanNV-57" edge="1">
          <mxGeometry width="50" height="50" relative="1" as="geometry">
            <mxPoint x="420" y="820" as="sourcePoint" />
            <mxPoint x="470" y="770" as="targetPoint" />
          </mxGeometry>
        </mxCell>
        <mxCell id="P7Sbou9Ln9NCmPDyanNV-86" value="" style="endArrow=none;html=1;rounded=0;entryX=1;entryY=0.5;entryDx=0;entryDy=0;exitX=1.001;exitY=0.652;exitDx=0;exitDy=0;exitPerimeter=0;" parent="1" source="P7Sbou9Ln9NCmPDyanNV-1" target="P7Sbou9Ln9NCmPDyanNV-26" edge="1">
          <mxGeometry width="50" height="50" relative="1" as="geometry">
            <mxPoint x="420" y="910" as="sourcePoint" />
            <mxPoint x="470" y="860" as="targetPoint" />
          </mxGeometry>
        </mxCell>
        <mxCell id="P7Sbou9Ln9NCmPDyanNV-87" value="" style="endArrow=none;html=1;rounded=0;entryX=1;entryY=0.652;entryDx=0;entryDy=0;entryPerimeter=0;" parent="1" target="P7Sbou9Ln9NCmPDyanNV-1" edge="1">
          <mxGeometry width="50" height="50" relative="1" as="geometry">
            <mxPoint x="790" y="690" as="sourcePoint" />
            <mxPoint x="470" y="860" as="targetPoint" />
          </mxGeometry>
        </mxCell>
        <mxCell id="P7Sbou9Ln9NCmPDyanNV-88" value="" style="endArrow=none;html=1;rounded=0;exitX=1;exitY=0.5;exitDx=0;exitDy=0;entryX=1;entryY=0.886;entryDx=0;entryDy=0;entryPerimeter=0;" parent="1" source="P7Sbou9Ln9NCmPDyanNV-32" target="P7Sbou9Ln9NCmPDyanNV-1" edge="1">
          <mxGeometry width="50" height="50" relative="1" as="geometry">
            <mxPoint x="450" y="1030" as="sourcePoint" />
            <mxPoint x="500" y="980" as="targetPoint" />
          </mxGeometry>
        </mxCell>
        <mxCell id="P7Sbou9Ln9NCmPDyanNV-89" value="" style="endArrow=none;html=1;rounded=0;exitX=1;exitY=0.886;exitDx=0;exitDy=0;exitPerimeter=0;" parent="1" source="P7Sbou9Ln9NCmPDyanNV-1" edge="1">
          <mxGeometry width="50" height="50" relative="1" as="geometry">
            <mxPoint x="450" y="1060" as="sourcePoint" />
            <mxPoint x="790" y="690" as="targetPoint" />
          </mxGeometry>
        </mxCell>
        <mxCell id="tJGvvSzTkdgtuSMr_Za--1" value="UPI" style="ellipse;whiteSpace=wrap;html=1;" parent="1" vertex="1">
          <mxGeometry x="520" y="980" width="120" height="30" as="geometry" />
        </mxCell>
        <mxCell id="gCzgkzxt3kUQvRXdaIv5-1" value="Change Password" style="ellipse;whiteSpace=wrap;html=1;" parent="1" vertex="1">
          <mxGeometry x="250" y="175" width="120" height="30" as="geometry" />
        </mxCell>
        <mxCell id="KK5amq60tcxna0Wlvex6-1" value="View Payment" style="ellipse;whiteSpace=wrap;html=1;" parent="1" vertex="1">
          <mxGeometry x="210" y="900" width="120" height="30" as="geometry" />
        </mxCell>
        <mxCell id="KK5amq60tcxna0Wlvex6-3" value="Authentication" style="ellipse;whiteSpace=wrap;html=1;" parent="1" vertex="1">
          <mxGeometry x="190" y="80" width="120" height="30" as="geometry" />
        </mxCell>
        <mxCell id="YJEu1Kpag8g80pFW3huI-4" value="&amp;lt;&amp;lt;Extends&amp;gt;&amp;gt;" style="html=1;labelBackgroundColor=#ffffff;startArrow=none;startFill=0;startSize=6;endArrow=classic;endFill=1;endSize=6;jettySize=auto;orthogonalLoop=1;strokeWidth=1;dashed=1;fontSize=14;rounded=0;entryX=1;entryY=0.5;entryDx=0;entryDy=0;exitX=0;exitY=0.5;exitDx=0;exitDy=0;" edge="1" parent="1" source="P7Sbou9Ln9NCmPDyanNV-34" target="P7Sbou9Ln9NCmPDyanNV-31">
          <mxGeometry width="60" height="60" relative="1" as="geometry">
            <mxPoint x="340" y="1270" as="sourcePoint" />
            <mxPoint x="400" y="1210" as="targetPoint" />
          </mxGeometry>
        </mxCell>
        <mxCell id="YJEu1Kpag8g80pFW3huI-5" value="&amp;lt;&amp;lt;Include&amp;gt;&amp;gt;" style="html=1;labelBackgroundColor=#ffffff;startArrow=none;startFill=0;startSize=6;endArrow=classic;endFill=1;endSize=6;jettySize=auto;orthogonalLoop=1;strokeWidth=1;dashed=1;fontSize=14;rounded=0;entryX=0.5;entryY=0;entryDx=0;entryDy=0;exitX=0.5;exitY=1;exitDx=0;exitDy=0;" edge="1" parent="1" source="P7Sbou9Ln9NCmPDyanNV-24" target="tJGvvSzTkdgtuSMr_Za--1">
          <mxGeometry width="60" height="60" relative="1" as="geometry">
            <mxPoint x="300" y="1000" as="sourcePoint" />
            <mxPoint x="360" y="940" as="targetPoint" />
          </mxGeometry>
        </mxCell>
        <mxCell id="YJEu1Kpag8g80pFW3huI-6" value="&amp;lt;&amp;lt;Include&amp;gt;&amp;gt;" style="html=1;labelBackgroundColor=#ffffff;startArrow=none;startFill=0;startSize=6;endArrow=classic;endFill=1;endSize=6;jettySize=auto;orthogonalLoop=1;strokeWidth=1;dashed=1;fontSize=14;rounded=0;entryX=0;entryY=0;entryDx=0;entryDy=0;exitX=0.5;exitY=1;exitDx=0;exitDy=0;" edge="1" parent="1" source="P7Sbou9Ln9NCmPDyanNV-26" target="P7Sbou9Ln9NCmPDyanNV-24">
          <mxGeometry width="60" height="60" relative="1" as="geometry">
            <mxPoint x="250" y="980" as="sourcePoint" />
            <mxPoint x="310" y="920" as="targetPoint" />
          </mxGeometry>
        </mxCell>
        <mxCell id="YJEu1Kpag8g80pFW3huI-7" value="&amp;lt;&amp;lt;Extends&amp;gt;&amp;gt;" style="html=1;labelBackgroundColor=#ffffff;startArrow=none;startFill=0;startSize=6;endArrow=classic;endFill=1;endSize=6;jettySize=auto;orthogonalLoop=1;strokeWidth=1;dashed=1;fontSize=14;rounded=0;entryX=0;entryY=1;entryDx=0;entryDy=0;exitX=0.5;exitY=0;exitDx=0;exitDy=0;" edge="1" parent="1" source="P7Sbou9Ln9NCmPDyanNV-20" target="P7Sbou9Ln9NCmPDyanNV-19">
          <mxGeometry width="60" height="60" relative="1" as="geometry">
            <mxPoint x="210" y="800" as="sourcePoint" />
            <mxPoint x="270" y="740" as="targetPoint" />
          </mxGeometry>
        </mxCell>
        <mxCell id="YJEu1Kpag8g80pFW3huI-8" value="&amp;lt;&amp;lt;Extends&amp;gt;&amp;gt;" style="html=1;labelBackgroundColor=#ffffff;startArrow=none;startFill=0;startSize=6;endArrow=classic;endFill=1;endSize=6;jettySize=auto;orthogonalLoop=1;strokeWidth=1;dashed=1;fontSize=14;rounded=0;entryX=0;entryY=0;entryDx=0;entryDy=0;exitX=1;exitY=0.5;exitDx=0;exitDy=0;" edge="1" parent="1" source="KK5amq60tcxna0Wlvex6-1" target="tJGvvSzTkdgtuSMr_Za--1">
          <mxGeometry width="60" height="60" relative="1" as="geometry">
            <mxPoint x="370" y="1200" as="sourcePoint" />
            <mxPoint x="430" y="1140" as="targetPoint" />
          </mxGeometry>
        </mxCell>
        <mxCell id="YJEu1Kpag8g80pFW3huI-9" value="&amp;lt;&amp;lt;Extends&amp;gt;&amp;gt;" style="html=1;labelBackgroundColor=#ffffff;startArrow=none;startFill=0;startSize=6;endArrow=classic;endFill=1;endSize=6;jettySize=auto;orthogonalLoop=1;strokeWidth=1;dashed=1;fontSize=14;rounded=0;entryX=0;entryY=1;entryDx=0;entryDy=0;exitX=0.5;exitY=0;exitDx=0;exitDy=0;" edge="1" parent="1" source="P7Sbou9Ln9NCmPDyanNV-29" target="P7Sbou9Ln9NCmPDyanNV-5">
          <mxGeometry width="60" height="60" relative="1" as="geometry">
            <mxPoint x="370" y="1200" as="sourcePoint" />
            <mxPoint x="430" y="1140" as="targetPoint" />
          </mxGeometry>
        </mxCell>
        <mxCell id="YJEu1Kpag8g80pFW3huI-10" value="&amp;lt;&amp;lt;Extends&amp;gt;&amp;gt;" style="html=1;labelBackgroundColor=#ffffff;startArrow=none;startFill=0;startSize=6;endArrow=classic;endFill=1;endSize=6;jettySize=auto;orthogonalLoop=1;strokeWidth=1;dashed=1;fontSize=14;rounded=0;entryX=1;entryY=1;entryDx=0;entryDy=0;exitX=0.5;exitY=0;exitDx=0;exitDy=0;" edge="1" parent="1" source="P7Sbou9Ln9NCmPDyanNV-28" target="P7Sbou9Ln9NCmPDyanNV-5">
          <mxGeometry width="60" height="60" relative="1" as="geometry">
            <mxPoint x="370" y="1200" as="sourcePoint" />
            <mxPoint x="430" y="1140" as="targetPoint" />
          </mxGeometry>
        </mxCell>
        <mxCell id="YJEu1Kpag8g80pFW3huI-11" value="&amp;lt;&amp;lt;Extends&amp;gt;&amp;gt;" style="html=1;labelBackgroundColor=#ffffff;startArrow=none;startFill=0;startSize=6;endArrow=classic;endFill=1;endSize=6;jettySize=auto;orthogonalLoop=1;strokeWidth=1;dashed=1;fontSize=14;rounded=0;exitX=0.5;exitY=0;exitDx=0;exitDy=0;entryX=0;entryY=1;entryDx=0;entryDy=0;" edge="1" parent="1" source="P7Sbou9Ln9NCmPDyanNV-31" target="P7Sbou9Ln9NCmPDyanNV-32">
          <mxGeometry width="60" height="60" relative="1" as="geometry">
            <mxPoint x="370" y="1200" as="sourcePoint" />
            <mxPoint x="430" y="1140" as="targetPoint" />
          </mxGeometry>
        </mxCell>
        <mxCell id="YJEu1Kpag8g80pFW3huI-12" value="&amp;lt;&amp;lt;Extends&amp;gt;&amp;gt;" style="html=1;labelBackgroundColor=#ffffff;startArrow=none;startFill=0;startSize=6;endArrow=classic;endFill=1;endSize=6;jettySize=auto;orthogonalLoop=1;strokeWidth=1;dashed=1;fontSize=14;rounded=0;entryX=0;entryY=1;entryDx=0;entryDy=0;exitX=0.5;exitY=0;exitDx=0;exitDy=0;" edge="1" parent="1" source="P7Sbou9Ln9NCmPDyanNV-16" target="P7Sbou9Ln9NCmPDyanNV-7">
          <mxGeometry width="60" height="60" relative="1" as="geometry">
            <mxPoint x="310" y="535" as="sourcePoint" />
            <mxPoint x="370" y="475" as="targetPoint" />
          </mxGeometry>
        </mxCell>
        <mxCell id="YJEu1Kpag8g80pFW3huI-13" value="&amp;lt;&amp;lt;Extends&amp;gt;&amp;gt;" style="html=1;labelBackgroundColor=#ffffff;startArrow=none;startFill=0;startSize=6;endArrow=classic;endFill=1;endSize=6;jettySize=auto;orthogonalLoop=1;strokeWidth=1;dashed=1;fontSize=14;rounded=0;entryX=1;entryY=0.5;entryDx=0;entryDy=0;exitX=0.5;exitY=0;exitDx=0;exitDy=0;" edge="1" parent="1" source="P7Sbou9Ln9NCmPDyanNV-23" target="P7Sbou9Ln9NCmPDyanNV-19">
          <mxGeometry width="60" height="60" relative="1" as="geometry">
            <mxPoint x="490" y="690" as="sourcePoint" />
            <mxPoint x="550" y="630" as="targetPoint" />
          </mxGeometry>
        </mxCell>
        <mxCell id="YJEu1Kpag8g80pFW3huI-14" value="&amp;lt;&amp;lt;Extends&amp;gt;&amp;gt;" style="html=1;labelBackgroundColor=#ffffff;startArrow=none;startFill=0;startSize=6;endArrow=classic;endFill=1;endSize=6;jettySize=auto;orthogonalLoop=1;strokeWidth=1;dashed=1;fontSize=14;rounded=0;entryX=1;entryY=1;entryDx=0;entryDy=0;exitX=0.5;exitY=0;exitDx=0;exitDy=0;" edge="1" parent="1" source="P7Sbou9Ln9NCmPDyanNV-22" target="P7Sbou9Ln9NCmPDyanNV-19">
          <mxGeometry width="60" height="60" relative="1" as="geometry">
            <mxPoint x="360" y="840" as="sourcePoint" />
            <mxPoint x="420" y="780" as="targetPoint" />
          </mxGeometry>
        </mxCell>
        <mxCell id="YJEu1Kpag8g80pFW3huI-15" value="&amp;lt;&amp;lt;Extends&amp;gt;&amp;gt;" style="html=1;labelBackgroundColor=#ffffff;startArrow=none;startFill=0;startSize=6;endArrow=classic;endFill=1;endSize=6;jettySize=auto;orthogonalLoop=1;strokeWidth=1;dashed=1;fontSize=14;rounded=0;entryX=0.5;entryY=1;entryDx=0;entryDy=0;exitX=0.5;exitY=0;exitDx=0;exitDy=0;" edge="1" parent="1" source="P7Sbou9Ln9NCmPDyanNV-21" target="P7Sbou9Ln9NCmPDyanNV-19">
          <mxGeometry width="60" height="60" relative="1" as="geometry">
            <mxPoint x="360" y="840" as="sourcePoint" />
            <mxPoint x="420" y="780" as="targetPoint" />
          </mxGeometry>
        </mxCell>
        <mxCell id="YJEu1Kpag8g80pFW3huI-16" value="&amp;lt;&amp;lt;Extends&amp;gt;&amp;gt;" style="html=1;labelBackgroundColor=#ffffff;startArrow=none;startFill=0;startSize=6;endArrow=classic;endFill=1;endSize=6;jettySize=auto;orthogonalLoop=1;strokeWidth=1;dashed=1;fontSize=14;rounded=0;entryX=1;entryY=1;entryDx=0;entryDy=0;exitX=0.5;exitY=0;exitDx=0;exitDy=0;" edge="1" parent="1" source="P7Sbou9Ln9NCmPDyanNV-18" target="P7Sbou9Ln9NCmPDyanNV-7">
          <mxGeometry width="60" height="60" relative="1" as="geometry">
            <mxPoint x="360" y="600" as="sourcePoint" />
            <mxPoint x="420" y="540" as="targetPoint" />
          </mxGeometry>
        </mxCell>
        <mxCell id="YJEu1Kpag8g80pFW3huI-17" value="&amp;lt;&amp;lt;Extends&amp;gt;&amp;gt;" style="html=1;labelBackgroundColor=#ffffff;startArrow=none;startFill=0;startSize=6;endArrow=classic;endFill=1;endSize=6;jettySize=auto;orthogonalLoop=1;strokeWidth=1;dashed=1;fontSize=14;rounded=0;entryX=0.5;entryY=1;entryDx=0;entryDy=0;exitX=0.5;exitY=0;exitDx=0;exitDy=0;" edge="1" parent="1" source="P7Sbou9Ln9NCmPDyanNV-17" target="P7Sbou9Ln9NCmPDyanNV-7">
          <mxGeometry width="60" height="60" relative="1" as="geometry">
            <mxPoint x="360" y="600" as="sourcePoint" />
            <mxPoint x="420" y="540" as="targetPoint" />
          </mxGeometry>
        </mxCell>
        <mxCell id="YJEu1Kpag8g80pFW3huI-18" value="&amp;lt;&amp;lt;Extends&amp;gt;&amp;gt;" style="html=1;labelBackgroundColor=#ffffff;startArrow=none;startFill=0;startSize=6;endArrow=classic;endFill=1;endSize=6;jettySize=auto;orthogonalLoop=1;strokeWidth=1;dashed=1;fontSize=14;rounded=0;entryX=1;entryY=1;entryDx=0;entryDy=0;exitX=0.5;exitY=0;exitDx=0;exitDy=0;" edge="1" parent="1" source="P7Sbou9Ln9NCmPDyanNV-10" target="P7Sbou9Ln9NCmPDyanNV-2">
          <mxGeometry width="60" height="60" relative="1" as="geometry">
            <mxPoint x="360" y="260" as="sourcePoint" />
            <mxPoint x="420" y="200" as="targetPoint" />
          </mxGeometry>
        </mxCell>
        <mxCell id="YJEu1Kpag8g80pFW3huI-19" value="&amp;lt;&amp;lt;Extends&amp;gt;&amp;gt;" style="html=1;labelBackgroundColor=#ffffff;startArrow=none;startFill=0;startSize=6;endArrow=classic;endFill=1;endSize=6;jettySize=auto;orthogonalLoop=1;strokeWidth=1;dashed=1;fontSize=14;rounded=0;entryX=0;entryY=1;entryDx=0;entryDy=0;exitX=0.5;exitY=0;exitDx=0;exitDy=0;" edge="1" parent="1" source="gCzgkzxt3kUQvRXdaIv5-1" target="P7Sbou9Ln9NCmPDyanNV-2">
          <mxGeometry width="60" height="60" relative="1" as="geometry">
            <mxPoint x="310" y="190" as="sourcePoint" />
            <mxPoint x="370" y="130" as="targetPoint" />
          </mxGeometry>
        </mxCell>
        <mxCell id="YJEu1Kpag8g80pFW3huI-20" value="&amp;lt;&amp;lt;Include&amp;gt;&amp;gt;" style="html=1;labelBackgroundColor=#ffffff;startArrow=none;startFill=0;startSize=6;endArrow=classic;endFill=1;endSize=6;jettySize=auto;orthogonalLoop=1;strokeWidth=1;dashed=1;fontSize=14;rounded=0;entryX=0.5;entryY=0;entryDx=0;entryDy=0;exitX=0;exitY=0.5;exitDx=0;exitDy=0;" edge="1" parent="1" source="P7Sbou9Ln9NCmPDyanNV-71" target="KK5amq60tcxna0Wlvex6-3">
          <mxGeometry width="60" height="60" relative="1" as="geometry">
            <mxPoint x="360" y="260" as="sourcePoint" />
            <mxPoint x="420" y="200" as="targetPoint" />
          </mxGeometry>
        </mxCell>
        <mxCell id="YJEu1Kpag8g80pFW3huI-21" value="&amp;lt;&amp;lt;Extends&amp;gt;&amp;gt;" style="html=1;labelBackgroundColor=#ffffff;startArrow=none;startFill=0;startSize=6;endArrow=classic;endFill=1;endSize=6;jettySize=auto;orthogonalLoop=1;strokeWidth=1;dashed=1;fontSize=14;rounded=0;entryX=1;entryY=0.5;entryDx=0;entryDy=0;exitX=0.5;exitY=0;exitDx=0;exitDy=0;" edge="1" parent="1" source="P7Sbou9Ln9NCmPDyanNV-14" target="P7Sbou9Ln9NCmPDyanNV-3">
          <mxGeometry width="60" height="60" relative="1" as="geometry">
            <mxPoint x="360" y="430" as="sourcePoint" />
            <mxPoint x="420" y="370" as="targetPoint" />
          </mxGeometry>
        </mxCell>
        <mxCell id="YJEu1Kpag8g80pFW3huI-22" value="&lt;div&gt;&amp;lt;&amp;lt;Extends&amp;gt;&amp;gt;&lt;br&gt;&lt;/div&gt;" style="html=1;labelBackgroundColor=#ffffff;startArrow=none;startFill=0;startSize=6;endArrow=classic;endFill=1;endSize=6;jettySize=auto;orthogonalLoop=1;strokeWidth=1;dashed=1;fontSize=14;rounded=0;entryX=0.5;entryY=1;entryDx=0;entryDy=0;exitX=1;exitY=0;exitDx=0;exitDy=0;" edge="1" parent="1" source="P7Sbou9Ln9NCmPDyanNV-12" target="P7Sbou9Ln9NCmPDyanNV-3">
          <mxGeometry width="60" height="60" relative="1" as="geometry">
            <mxPoint x="360" y="430" as="sourcePoint" />
            <mxPoint x="420" y="370" as="targetPoint" />
          </mxGeometry>
        </mxCell>
        <mxCell id="YJEu1Kpag8g80pFW3huI-23" value="&amp;lt;&amp;lt;Extends&amp;gt;&amp;gt;" style="html=1;labelBackgroundColor=#ffffff;startArrow=none;startFill=0;startSize=6;endArrow=classic;endFill=1;endSize=6;jettySize=auto;orthogonalLoop=1;strokeWidth=1;dashed=1;fontSize=14;rounded=0;entryX=0;entryY=1;entryDx=0;entryDy=0;exitX=1;exitY=0;exitDx=0;exitDy=0;" edge="1" parent="1" source="P7Sbou9Ln9NCmPDyanNV-11" target="P7Sbou9Ln9NCmPDyanNV-3">
          <mxGeometry width="60" height="60" relative="1" as="geometry">
            <mxPoint x="360" y="430" as="sourcePoint" />
            <mxPoint x="420" y="370" as="targetPoint" />
          </mxGeometry>
        </mxCell>
        <mxCell id="YJEu1Kpag8g80pFW3huI-24" value="&amp;lt;&amp;lt;Extends&amp;gt;&amp;gt;" style="html=1;labelBackgroundColor=#ffffff;startArrow=none;startFill=0;startSize=6;endArrow=classic;endFill=1;endSize=6;jettySize=auto;orthogonalLoop=1;strokeWidth=1;dashed=1;fontSize=14;rounded=0;entryX=0;entryY=0.5;entryDx=0;entryDy=0;exitX=0.5;exitY=0;exitDx=0;exitDy=0;" edge="1" parent="1" source="P7Sbou9Ln9NCmPDyanNV-13" target="P7Sbou9Ln9NCmPDyanNV-3">
          <mxGeometry width="60" height="60" relative="1" as="geometry">
            <mxPoint x="360" y="430" as="sourcePoint" />
            <mxPoint x="420" y="370" as="targetPoint" />
          </mxGeometry>
        </mxCell>
      </root>
    </mxGraphModel>
  </diagram>
</mxfile>
